<svg width="27" height="17" viewBox="0 0 27 17" fill="none" xmlns="http://www.w3.org/2000/svg">
<path d="M4.06055 16.7842C3.38086 16.7842 2.78027 16.6436 2.25879 16.3623C1.74316 16.0811 1.33887 15.6768 1.0459 15.1494C0.758789 14.6279 0.615234 14.0098 0.615234 13.2949C0.615234 12.832 0.662109 12.3398 0.755859 11.8184C0.855469 11.2969 0.993164 10.7461 1.16895 10.166C1.34473 9.55664 1.56152 8.89746 1.81934 8.18848C2.07715 7.47363 2.35254 6.75586 2.64551 6.03516C2.94434 5.30859 3.24316 4.62891 3.54199 3.99609C3.79395 3.46875 4.03418 3.02344 4.2627 2.66016C4.49707 2.29102 4.79297 1.98926 5.15039 1.75488C5.51367 1.51465 6.01758 1.32422 6.66211 1.18359C7.50586 0.990234 8.50488 0.834961 9.65918 0.717773C10.8135 0.600586 12.0938 0.541992 13.5 0.541992C14.9121 0.541992 16.1924 0.600586 17.3408 0.717773C18.4951 0.834961 19.4941 0.990234 20.3379 1.18359C20.9824 1.32422 21.4834 1.51465 21.8408 1.75488C22.2041 1.98926 22.5 2.29102 22.7285 2.66016C22.957 3.02344 23.2002 3.46875 23.458 3.99609C23.7568 4.62891 24.0527 5.30859 24.3457 6.03516C24.6445 6.75586 24.9229 7.47363 25.1807 8.18848C25.4385 8.89746 25.6553 9.55664 25.8311 10.166C26.0068 10.7461 26.1416 11.2969 26.2354 11.8184C26.335 12.3398 26.3848 12.832 26.3848 13.2949C26.3848 14.0098 26.2383 14.6279 25.9453 15.1494C25.6582 15.6768 25.2539 16.0811 24.7324 16.3623C24.2168 16.6436 23.6191 16.7842 22.9395 16.7842C22.2832 16.7842 21.7178 16.6641 21.2432 16.4238C20.7744 16.1836 20.3408 15.832 19.9424 15.3691L18.3867 13.5674C18.2695 13.4326 18.1523 13.3359 18.0352 13.2773C17.918 13.2129 17.792 13.1807 17.6572 13.1807H9.34277C9.20801 13.1807 9.08203 13.2129 8.96484 13.2773C8.84766 13.3359 8.73047 13.4326 8.61328 13.5674L7.04883 15.3691C6.65625 15.832 6.22266 16.1836 5.74805 16.4238C5.2793 16.6641 4.7168 16.7842 4.06055 16.7842ZM6.31934 6.94922C6.31934 7.19531 6.38965 7.3916 6.53027 7.53809C6.67676 7.67871 6.87598 7.74902 7.12793 7.74902H8.60449V9.18164C8.60449 9.42773 8.67188 9.62402 8.80664 9.77051C8.94727 9.91699 9.1377 9.99023 9.37793 9.99023C9.61816 9.99023 9.80859 9.91699 9.94922 9.77051C10.0898 9.62402 10.1602 9.42773 10.1602 9.18164V7.74902H11.5488C11.8125 7.74902 12.0205 7.67871 12.1729 7.53809C12.3252 7.3916 12.4014 7.19531 12.4014 6.94922C12.4014 6.71484 12.3252 6.52734 12.1729 6.38672C12.0205 6.24023 11.8125 6.16699 11.5488 6.16699H10.1602V4.74316C10.1602 4.49707 10.0898 4.30078 9.94922 4.1543C9.80859 4.00781 9.61816 3.93457 9.37793 3.93457C9.1377 3.93457 8.94727 4.00781 8.80664 4.1543C8.67188 4.30078 8.60449 4.49707 8.60449 4.74316V6.16699H7.12793C6.87598 6.16699 6.67676 6.24023 6.53027 6.38672C6.38965 6.52734 6.31934 6.71484 6.31934 6.94922ZM15.0029 8.21484C15.0029 8.58398 15.1289 8.89453 15.3809 9.14648C15.6328 9.39258 15.9404 9.51562 16.3037 9.51562C16.6729 9.51562 16.9834 9.39258 17.2354 9.14648C17.4873 8.89453 17.6133 8.58398 17.6133 8.21484C17.6133 7.8457 17.4873 7.53516 17.2354 7.2832C16.9834 7.03125 16.6729 6.90527 16.3037 6.90527C15.9404 6.90527 15.6328 7.03125 15.3809 7.2832C15.1289 7.53516 15.0029 7.8457 15.0029 8.21484ZM17.6221 5.57812C17.6221 5.94141 17.748 6.24902 18 6.50098C18.252 6.74707 18.5596 6.87012 18.9229 6.87012C19.2861 6.87012 19.5938 6.74707 19.8457 6.50098C20.0977 6.24902 20.2236 5.94141 20.2236 5.57812C20.2236 5.20898 20.0977 4.89844 19.8457 4.64648C19.5938 4.38867 19.2861 4.25977 18.9229 4.25977C18.5596 4.25977 18.252 4.38867 18 4.64648C17.748 4.89844 17.6221 5.20898 17.6221 5.57812Z" fill="#007AFF"/>
</svg>
