<svg width="24" height="20" viewBox="0 0 24 20" fill="none" xmlns="http://www.w3.org/2000/svg">
<path d="M5.10547 8.62109C4.32422 8.62109 3.60482 8.42578 2.94727 8.03516C2.29622 7.64453 1.77539 7.1237 1.38477 6.47266C0.994141 5.82161 0.798828 5.10547 0.798828 4.32422C0.798828 3.53646 0.994141 2.81706 1.38477 2.16602C1.77539 1.50846 2.29622 0.984375 2.94727 0.59375C3.59831 0.203125 4.31771 0.0078125 5.10547 0.0078125C5.89323 0.0078125 6.60938 0.203125 7.25391 0.59375C7.90495 0.984375 8.42578 1.50846 8.81641 2.16602C9.21354 2.81706 9.41211 3.53646 9.41211 4.32422C9.41211 5.10547 9.21354 5.82161 8.81641 6.47266C8.42578 7.1237 7.90495 7.64453 7.25391 8.03516C6.60286 8.42578 5.88672 8.62109 5.10547 8.62109ZM4.58789 6.62891C4.81576 6.62891 4.99479 6.53125 5.125 6.33594L7.20508 3.10352C7.29622 2.9668 7.3418 2.83008 7.3418 2.69336C7.3418 2.55664 7.28646 2.43945 7.17578 2.3418C7.0651 2.24414 6.9349 2.19531 6.78516 2.19531C6.59635 2.19531 6.4401 2.29297 6.31641 2.48828L4.57812 5.27148L3.82617 4.33398C3.75456 4.24935 3.68294 4.1875 3.61133 4.14844C3.54622 4.10938 3.46159 4.08984 3.35742 4.08984C3.21419 4.08984 3.09049 4.14193 2.98633 4.24609C2.88867 4.35026 2.83984 4.48047 2.83984 4.63672C2.83984 4.78646 2.88542 4.91992 2.97656 5.03711L4.07031 6.3457C4.14193 6.43685 4.22005 6.50846 4.30469 6.56055C4.38932 6.60612 4.48372 6.62891 4.58789 6.62891ZM5.10547 19.9102C4.32422 19.9102 3.60482 19.7148 2.94727 19.3242C2.29622 18.9336 1.77539 18.4095 1.38477 17.752C0.994141 17.1009 0.798828 16.3848 0.798828 15.6035C0.798828 14.8158 0.994141 14.0964 1.38477 13.4453C1.77539 12.7943 2.29622 12.2734 2.94727 11.8828C3.59831 11.4922 4.31771 11.2969 5.10547 11.2969C5.89323 11.2969 6.60938 11.4922 7.25391 11.8828C7.90495 12.2669 8.42578 12.7878 8.81641 13.4453C9.21354 14.0964 9.41211 14.8158 9.41211 15.6035C9.41211 16.3848 9.21354 17.1009 8.81641 17.752C8.42578 18.4095 7.90495 18.9336 7.25391 19.3242C6.60938 19.7148 5.89323 19.9102 5.10547 19.9102ZM5.10547 18.25C5.58073 18.25 6.02018 18.1296 6.42383 17.8887C6.82747 17.6478 7.14974 17.3255 7.39062 16.9219C7.63151 16.5182 7.75195 16.0788 7.75195 15.6035C7.75195 15.1217 7.63151 14.6823 7.39062 14.2852C7.14974 13.8815 6.82747 13.5592 6.42383 13.3184C6.02018 13.0775 5.58073 12.957 5.10547 12.957C4.63021 12.957 4.19076 13.0775 3.78711 13.3184C3.38346 13.5592 3.0612 13.8815 2.82031 14.2852C2.57943 14.6823 2.45898 15.1217 2.45898 15.6035C2.45898 16.0788 2.57943 16.5182 2.82031 16.9219C3.0612 17.3255 3.38346 17.6478 3.78711 17.8887C4.19076 18.1296 4.63021 18.25 5.10547 18.25ZM12.5078 5.18359C12.2669 5.18359 12.0618 5.10221 11.8926 4.93945C11.7298 4.77018 11.6484 4.5651 11.6484 4.32422C11.6484 4.08333 11.7298 3.88151 11.8926 3.71875C12.0618 3.54948 12.2669 3.46484 12.5078 3.46484H22.332C22.5729 3.46484 22.778 3.54948 22.9473 3.71875C23.1165 3.88151 23.2012 4.08333 23.2012 4.32422C23.2012 4.5651 23.1165 4.77018 22.9473 4.93945C22.778 5.10221 22.5729 5.18359 22.332 5.18359H12.5078ZM12.5078 16.4824C12.2669 16.4824 12.0618 16.3978 11.8926 16.2285C11.7298 16.0592 11.6484 15.8574 11.6484 15.623C11.6484 15.3822 11.7298 15.1803 11.8926 15.0176C12.0618 14.8483 12.2669 14.7637 12.5078 14.7637H22.332C22.5729 14.7637 22.778 14.8483 22.9473 15.0176C23.1165 15.1803 23.2012 15.3822 23.2012 15.623C23.2012 15.8574 23.1165 16.0592 22.9473 16.2285C22.778 16.3978 22.5729 16.4824 22.332 16.4824H12.5078Z" fill="#007AFF"/>
</svg>
