<svg width="22" height="20" viewBox="0 0 22 20" fill="none" xmlns="http://www.w3.org/2000/svg">
<path d="M13.3027 17.5029V11.8691C13.3027 11.6641 13.2412 11.5 13.1182 11.377C13.001 11.2539 12.8369 11.1924 12.626 11.1924H9.37402C9.16895 11.1924 9.00195 11.2539 8.87305 11.377C8.75 11.5 8.68848 11.6641 8.68848 11.8691V17.5029H13.3027ZM3.08984 17.125V10.4453L10.4551 4.27539C10.8184 3.9707 11.1816 3.9707 11.5449 4.27539L18.9014 10.4453V17.125C18.9014 17.7578 18.7139 18.2529 18.3389 18.6104C17.9639 18.9736 17.4512 19.1553 16.8008 19.1553H5.19922C4.54297 19.1553 4.02734 18.9736 3.65234 18.6104C3.27734 18.2529 3.08984 17.7578 3.08984 17.125ZM0.242188 9.20605C0.242188 8.93066 0.359375 8.69629 0.59375 8.50293L9.75195 0.8125C10.1328 0.490234 10.5488 0.329102 11 0.329102C11.4512 0.329102 11.8701 0.490234 12.2568 0.8125L21.3975 8.50293C21.6318 8.69629 21.749 8.93945 21.749 9.23242C21.749 9.49023 21.6611 9.69531 21.4854 9.84766C21.3096 9.99414 21.0928 10.0674 20.835 10.0674C20.7002 10.0674 20.5713 10.0352 20.4482 9.9707C20.3252 9.90625 20.2109 9.83008 20.1055 9.74219L11.3867 2.42969C11.2637 2.32422 11.1348 2.27148 11 2.27148C10.8711 2.27148 10.7451 2.32422 10.6221 2.42969L1.90332 9.74219C1.79199 9.83008 1.6748 9.90625 1.55176 9.9707C1.42871 10.0352 1.29688 10.0674 1.15625 10.0674C0.875 10.0674 0.652344 9.98242 0.488281 9.8125C0.324219 9.64258 0.242188 9.44043 0.242188 9.20605ZM16.4141 4.91699V2.77246C16.4141 2.57324 16.4727 2.41504 16.5898 2.29785C16.7129 2.18066 16.8711 2.12207 17.0645 2.12207H18.2861C18.4854 2.12207 18.6436 2.18066 18.7607 2.29785C18.8779 2.41504 18.9365 2.57324 18.9365 2.77246V7.04395L16.4141 4.91699Z" fill="#007AFF"/>
</svg>
