<svg width="17" height="19" viewBox="0 0 17 19" fill="none" xmlns="http://www.w3.org/2000/svg">
<path d="M3.4375 18.8809C2.48242 18.8809 1.75879 18.6377 1.2666 18.1514C0.780273 17.6709 0.537109 16.959 0.537109 16.0156V6.92773C0.537109 5.98438 0.780273 5.26953 1.2666 4.7832C1.75879 4.29688 2.48242 4.05371 3.4375 4.05371H13.5537C14.5029 4.05371 15.2236 4.29688 15.7158 4.7832C16.208 5.26953 16.4541 5.98438 16.4541 6.92773V16.0156C16.4541 16.959 16.2168 17.6709 15.7422 18.1514C15.2734 18.6377 14.6172 18.8809 13.7734 18.8809H3.4375ZM4.66797 4.12402C4.66797 3.45605 4.84082 2.84375 5.18652 2.28711C5.53223 1.73047 5.99219 1.28516 6.56641 0.951172C7.14648 0.617188 7.78809 0.450195 8.49121 0.450195C9.2002 0.450195 9.84473 0.617188 10.4248 0.951172C11.0049 1.28516 11.4648 1.73047 11.8047 2.28711C12.1445 2.84375 12.3145 3.45605 12.3145 4.12402H10.6182C10.6182 3.73145 10.5273 3.37695 10.3457 3.06055C10.1641 2.73828 9.91211 2.4834 9.58984 2.2959C9.27344 2.10254 8.90723 2.00586 8.49121 2.00586C8.08105 2.00586 7.71484 2.10254 7.39258 2.2959C7.07617 2.4834 6.82422 2.73828 6.63672 3.06055C6.45508 3.37695 6.36426 3.73145 6.36426 4.12402H4.66797Z" fill="#007AFF"/>
</svg>
